<?xml version="1.0" standalone="yes"?>

<svg version="1.1" viewBox="0.0 0.0 402.9160104986877 394.2834645669291" fill="none" stroke="none" stroke-linecap="square" stroke-miterlimit="10" xmlns="http://www.w3.org/2000/svg" xmlns:xlink="http://www.w3.org/1999/xlink"><clipPath id="p.0"><path d="m0 0l402.91602 0l0 394.28348l-402.91602 0l0 -394.28348z" clip-rule="nonzero"></path></clipPath><g clip-path="url(#p.0)"><path fill="#000000" fill-opacity="0.0" d="m0 0l402.91602 0l0 394.28348l-402.91602 0z" fill-rule="nonzero"></path><path fill="#000000" fill-opacity="0.0" d="m17.839895 199.43045l0 0c0 -101.34208 81.871956 -183.49606 182.86615 -183.49606l0 0c48.499115 0 95.011826 19.332565 129.3059 53.744755c34.294037 34.412186 53.56024 81.08513 53.56024 129.75131l0 0c0 101.34207 -81.87195 183.49606 -182.86613 183.49606l0 0c-100.99419 0 -182.86615 -82.15399 -182.86615 -183.49606z" fill-rule="nonzero"></path><path stroke="#000000" stroke-width="4.0" stroke-linejoin="round" stroke-linecap="butt" d="m17.839895 199.43045l0 0c0 -101.34208 81.871956 -183.49606 182.86615 -183.49606l0 0c48.499115 0 95.011826 19.332565 129.3059 53.744755c34.294037 34.412186 53.56024 81.08513 53.56024 129.75131l0 0c0 101.34207 -81.87195 183.49606 -182.86613 183.49606l0 0c-100.99419 0 -182.86615 -82.15399 -182.86615 -183.49606z" fill-rule="nonzero"></path></g></svg>

